STARTFONT 2.1
FONT WH:/gn/phr/ast-xfonts/oldera.ast
SIZE 14 75 75
FONTBOUNDINGBOX 15 9 0 0
STARTPROPERTIES 3
FONT_DESCENT 6
FONT_ASCENT 9
COPYRIGHT "Public domain font.  Share and enjoy."
ENDPROPERTIES
CHARS 64
STARTCHAR C040
ENCODING 32
SWIDTH 1071 0
DWIDTH 15 0
BBX 15 15 0 -6
BITMAP
00
00
00
00
00
00
00
00
00
00
00
00
00
00
00
ENDCHAR
STARTCHAR !
ENCODING 33
SWIDTH 1071 0
DWIDTH 15 0
BBX 15 15 0 -6
BITMAP
00
00
00
00
00
00
00
00
00
00
00
00
00
00
00
ENDCHAR
STARTCHAR A
ENCODING 65
SWIDTH 1071 0
DWIDTH 15 0
BBX 15 15 0 -6
BITMAP
30
70
f0
b0
30
30
30
30
10
00
00
00
00
00
00
ENDCHAR
STARTCHAR B
ENCODING 66
SWIDTH 1071 0
DWIDTH 15 0
BBX 15 15 0 -6
BITMAP
0000
0000
0000
0000
c002
c006
fffe
7ffc
0000
0000
0300
0300
0000
0000
0000
ENDCHAR
STARTCHAR C
ENCODING 67
SWIDTH 1071 0
DWIDTH 15 0
BBX 15 15 0 -6
BITMAP
0000
0000
0000
0000
c002
c006
fffe
7ffc
0000
0660
0660
0000
0180
0180
0000
ENDCHAR
STARTCHAR D
ENCODING 68
SWIDTH 1071 0
DWIDTH 15 0
BBX 15 15 0 -6
BITMAP
0000
0000
0cc0
0cc0
c002
c006
fffe
7ffc
0000
0000
0000
0000
0000
0000
0000
ENDCHAR
STARTCHAR E
ENCODING 69
SWIDTH 1071 0
DWIDTH 15 0
BBX 15 15 0 -6
BITMAP
0200
0200
0380
0280
c782
c006
fffe
7ffc
0000
0000
0000
0000
0000
0000
0000
ENDCHAR
STARTCHAR F
ENCODING 70
SWIDTH 1071 0
DWIDTH 15 0
BBX 15 15 0 -6
BITMAP
0000
0300
0300
0cc0
ccc2
c006
fffe
7ffc
0000
0000
0000
0000
0000
0000
0000
ENDCHAR
STARTCHAR G
ENCODING 71
SWIDTH 1071 0
DWIDTH 15 0
BBX 15 15 0 -6
BITMAP
00
00
00
00
00
00
7f
ff
06
18
30
66
66
60
30
ENDCHAR
STARTCHAR H
ENCODING 72
SWIDTH 1071 0
DWIDTH 15 0
BBX 15 15 0 -6
BITMAP
0000
0000
0000
0000
0000
0000
7f00
ff00
0600
1800
3000
6660
6660
6180
3180
ENDCHAR
STARTCHAR I
ENCODING 73
SWIDTH 1071 0
DWIDTH 15 0
BBX 15 15 0 -6
BITMAP
00
00
00
00
00
00
7f
ff
06
18
30
60
60
60
30
ENDCHAR
STARTCHAR J
ENCODING 74
SWIDTH 1071 0
DWIDTH 15 0
BBX 15 15 0 -6
BITMAP
00
00
00
0c
0c
00
7f
ff
06
18
30
60
60
60
30
ENDCHAR
STARTCHAR K
ENCODING 75
SWIDTH 1071 0
DWIDTH 15 0
BBX 15 15 0 -6
BITMAP
00
00
00
00
70
1c
06
06
38
e0
00
00
00
00
00
ENDCHAR
STARTCHAR L
ENCODING 76
SWIDTH 1071 0
DWIDTH 15 0
BBX 15 15 0 -6
BITMAP
00
e0
e0
00
70
1c
06
06
38
e0
00
00
00
00
00
ENDCHAR
STARTCHAR M
ENCODING 77
SWIDTH 1071 0
DWIDTH 15 0
BBX 15 15 0 -6
BITMAP
00
00
00
00
00
00
01
03
03
06
7c
f8
00
00
00
ENDCHAR
STARTCHAR N
ENCODING 78
SWIDTH 1071 0
DWIDTH 15 0
BBX 15 15 0 -6
BITMAP
00
00
00
00
38
38
01
03
03
06
7c
f8
00
00
00
ENDCHAR
STARTCHAR O
ENCODING 79
SWIDTH 1071 0
DWIDTH 15 0
BBX 15 15 0 -6
BITMAP
0000
0000
0000
0000
0000
01b6
01b6
81fc
c0c0
c0c0
c180
7f00
3e00
0000
0000
ENDCHAR
STARTCHAR P
ENCODING 80
SWIDTH 1071 0
DWIDTH 15 0
BBX 15 15 0 -6
BITMAP
0060
0060
0198
0198
0000
01b6
01b6
81fc
c0c0
c0c0
c180
7f00
3e00
0000
0000
ENDCHAR
STARTCHAR Q
ENCODING 81
SWIDTH 1071 0
DWIDTH 15 0
BBX 15 15 0 -6
BITMAP
0000
0000
0000
0078
00ec
00c6
03fe
81fc
c0c0
c0c0
c180
7f00
3e00
0000
0000
ENDCHAR
STARTCHAR R
ENCODING 82
SWIDTH 1071 0
DWIDTH 15 0
BBX 15 15 0 -6
BITMAP
0000
0e00
0e78
00ec
00c6
03fe
81fc
c0c0
c0c0
c180
7f00
3e00
0000
0000
0000
ENDCHAR
STARTCHAR S
ENCODING 83
SWIDTH 1071 0
DWIDTH 15 0
BBX 15 15 0 -6
BITMAP
0c00
0600
0600
07c0
07e0
0c30
3ff0
ffe0
0000
0000
0000
0000
0000
0000
0000
ENDCHAR
STARTCHAR T
ENCODING 84
SWIDTH 1071 0
DWIDTH 15 0
BBX 15 15 0 -6
BITMAP
0000
0000
0780
0f80
0c00
0c00
1f80
3f80
6000
c000
c000
c000
ff00
7e00
0000
ENDCHAR
STARTCHAR U
ENCODING 85
SWIDTH 1071 0
DWIDTH 15 0
BBX 15 15 0 -6
BITMAP
0000
e000
e3c0
07c0
0c00
0c00
0fc0
1fc0
3000
c000
c000
c000
7f80
3f00
0000
ENDCHAR
STARTCHAR V
ENCODING 86
SWIDTH 1071 0
DWIDTH 15 0
BBX 15 15 0 -6
BITMAP
00e0
00e0
0000
00f0
80f0
c030
fff0
7fe0
0000
0000
0000
0000
0000
0000
0000
ENDCHAR
STARTCHAR W
ENCODING 87
SWIDTH 1071 0
DWIDTH 15 0
BBX 15 15 0 -6
BITMAP
0000
0000
0d80
0d80
0000
0780
07c0
07c0
80c0
c060
c060
c060
60c0
3fc0
1f80
ENDCHAR
STARTCHAR X
ENCODING 88
SWIDTH 1071 0
DWIDTH 15 0
BBX 15 15 0 -6
BITMAP
0000
07f0
07f0
0300
01c0
80e0
ffe0
7fc0
0000
0000
0000
0000
0000
0000
0000
ENDCHAR
STARTCHAR Y
ENCODING 89
SWIDTH 1071 0
DWIDTH 15 0
BBX 15 15 0 -6
BITMAP
0000
0000
0100
0180
0180
0180
0180
0180
4180
c180
c180
c180
7f00
3e00
0000
ENDCHAR
STARTCHAR Z
ENCODING 90
SWIDTH 1071 0
DWIDTH 15 0
BBX 15 15 0 -6
BITMAP
00
00
00
00
1c
0e
1e
70
c0
c0
c0
c0
c0
c0
c0
ENDCHAR
STARTCHAR [
ENCODING 91
SWIDTH 1071 0
DWIDTH 15 0
BBX 15 15 0 -6
BITMAP
0000
0000
0000
0000
1c00
1c00
8180
c180
c180
c180
7300
3c00
0000
0000
0000
ENDCHAR
STARTCHAR \
ENCODING 92
SWIDTH 1071 0
DWIDTH 15 0
BBX 15 15 0 -6
BITMAP
00
00
00
0e
1e
1e
06
06
7c
f8
00
00
00
00
00
ENDCHAR
STARTCHAR ]
ENCODING 93
SWIDTH 1071 0
DWIDTH 15 0
BBX 15 15 0 -6
BITMAP
0000
0000
0000
0000
0000
0f00
7f80
ffc0
30c0
30c0
30c0
1f80
0f00
0600
0000
ENDCHAR
STARTCHAR ^
ENCODING 94
SWIDTH 1071 0
DWIDTH 15 0
BBX 15 15 0 -6
BITMAP
0000
0000
0000
0000
0000
0000
00fc
01fc
2180
6060
c060
70c0
3f80
1f00
0000
ENDCHAR
STARTCHAR _
ENCODING 95
SWIDTH 1071 0
DWIDTH 15 0
BBX 15 15 0 -6
BITMAP
0000
0000
0000
0000
0000
0000
0ff8
3ff0
c000
7fe0
3fc0
0000
0000
0000
0000
ENDCHAR
STARTCHAR a
ENCODING 97
SWIDTH 1071 0
DWIDTH 15 0
BBX 15 15 0 -6
BITMAP
0706
0406
0306
0406
0006
000e
fffe
fffc
0000
0000
0000
0000
0000
0000
0000
ENDCHAR
STARTCHAR b
ENCODING 98
SWIDTH 1071 0
DWIDTH 15 0
BBX 15 15 0 -6
BITMAP
0000
0000
0000
0000
000c
0006
fffe
fffc
0000
01c0
01c0
0000
0000
0000
0000
ENDCHAR
STARTCHAR c
ENCODING 99
SWIDTH 1071 0
DWIDTH 15 0
BBX 15 15 0 -6
BITMAP
0000
0000
0000
0000
000c
0006
fffe
fffc
0000
0e38
0e38
0000
01c0
01c0
0000
ENDCHAR
STARTCHAR d
ENCODING 100
SWIDTH 1071 0
DWIDTH 15 0
BBX 15 15 0 -6
BITMAP
0000
0000
1ce0
1ce0
000c
0006
fffe
fffc
0000
0000
0000
0000
0000
0000
0000
ENDCHAR
STARTCHAR e
ENCODING 101
SWIDTH 1071 0
DWIDTH 15 0
BBX 15 15 0 -6
BITMAP
0200
0200
0380
0280
078c
0006
fffe
fffc
0000
0000
0000
0000
0000
0000
0000
ENDCHAR
STARTCHAR f
ENCODING 102
SWIDTH 1071 0
DWIDTH 15 0
BBX 15 15 0 -6
BITMAP
0000
0700
0700
38e0
38ec
0006
fffe
fffc
0000
0000
0000
0000
0000
0000
0000
ENDCHAR
STARTCHAR g
ENCODING 103
SWIDTH 1071 0
DWIDTH 15 0
BBX 15 15 0 -6
BITMAP
0000
0000
0180
03e0
0638
000e
fffe
fffc
0000
0700
0700
0000
0000
0000
0000
ENDCHAR
STARTCHAR h
ENCODING 104
SWIDTH 1071 0
DWIDTH 15 0
BBX 15 15 0 -6
BITMAP
0000
0000
0180
03e0
0638
000e
fffe
fffc
0000
0e38
0e38
0000
01c0
01c0
0000
ENDCHAR
STARTCHAR i
ENCODING 105
SWIDTH 1071 0
DWIDTH 15 0
BBX 15 15 0 -6
BITMAP
0000
0000
0180
03e0
0638
000e
fffe
fffc
0000
0000
0000
0000
0000
0000
0000
ENDCHAR
STARTCHAR j
ENCODING 106
SWIDTH 1071 0
DWIDTH 15 0
BBX 15 15 0 -6
BITMAP
3800
3800
0180
03e0
0638
000e
fffe
fffc
0000
0000
0000
0000
0000
0000
0000
ENDCHAR
STARTCHAR k
ENCODING 107
SWIDTH 1071 0
DWIDTH 15 0
BBX 15 15 0 -6
BITMAP
20
38
28
78
00
1c
06
06
38
e0
00
00
00
00
00
ENDCHAR
STARTCHAR l
ENCODING 108
SWIDTH 1071 0
DWIDTH 15 0
BBX 15 15 0 -6
BITMAP
0000
0000
0000
0000
0000
0f00
1800
0f80
3000
c000
0000
0000
0000
0000
0000
ENDCHAR
STARTCHAR m
ENCODING 109
SWIDTH 1071 0
DWIDTH 15 0
BBX 15 15 0 -6
BITMAP
04
04
07
05
0f
00
01
03
03
06
7c
f8
00
00
00
ENDCHAR
STARTCHAR n
ENCODING 110
SWIDTH 1071 0
DWIDTH 15 0
BBX 15 15 0 -6
BITMAP
1c00
1c00
0000
e380
e380
0000
0080
0180
0180
0300
7e00
fc00
0000
0000
0000
ENDCHAR
STARTCHAR o
ENCODING 111
SWIDTH 1071 0
DWIDTH 15 0
BBX 15 15 0 -6
BITMAP
0000
0000
0000
0000
01b6
19b6
fffe
e7fc
0000
0000
0000
0000
0000
0000
0000
ENDCHAR
STARTCHAR p
ENCODING 112
SWIDTH 1071 0
DWIDTH 15 0
BBX 15 15 0 -6
BITMAP
0300
0300
0cc0
0cc0
01b6
19b6
fffe
e7fc
0000
0000
0000
0000
0000
0000
0000
ENDCHAR
STARTCHAR q
ENCODING 113
SWIDTH 1071 0
DWIDTH 15 0
BBX 15 15 0 -6
BITMAP
0000
0000
0000
0078
00ec
18c6
fffe
e7fc
0000
0000
0000
0000
0000
0000
0000
ENDCHAR
STARTCHAR r
ENCODING 114
SWIDTH 1071 0
DWIDTH 15 0
BBX 15 15 0 -6
BITMAP
0000
0000
0e00
0e78
00ec
18c6
fffe
e7fc
0000
0000
0000
0000
0000
0000
0000
ENDCHAR
STARTCHAR s
ENCODING 115
SWIDTH 1071 0
DWIDTH 15 0
BBX 15 15 0 -6
BITMAP
0c70
0670
0600
07c0
07e0
0c30
3ff0
ffe0
0000
0000
0000
0000
0000
0000
0000
ENDCHAR
STARTCHAR t
ENCODING 116
SWIDTH 1071 0
DWIDTH 15 0
BBX 15 15 0 -6
BITMAP
0000
0078
00fc
0184
0180
00c0
fffe
fffc
0000
0000
0000
0000
0000
0000
0000
ENDCHAR
STARTCHAR u
ENCODING 117
SWIDTH 1071 0
DWIDTH 15 0
BBX 15 15 0 -6
BITMAP
3800
3878
00fc
0184
0180
00c0
fffe
fffc
0000
0000
0000
0000
0000
0000
0000
ENDCHAR
STARTCHAR v
ENCODING 118
SWIDTH 1071 0
DWIDTH 15 0
BBX 15 15 0 -6
BITMAP
0700
0700
0018
003c
003c
0006
fffe
fffc
0000
0000
0000
0000
0000
0000
0000
ENDCHAR
STARTCHAR w
ENCODING 119
SWIDTH 1071 0
DWIDTH 15 0
BBX 15 15 0 -6
BITMAP
7380
7380
0018
003c
003c
0006
fffe
fffc
0000
0000
0000
0000
0000
0000
0000
ENDCHAR
STARTCHAR x
ENCODING 120
SWIDTH 1071 0
DWIDTH 15 0
BBX 15 15 0 -6
BITMAP
07f8
07f8
0000
07f8
00c0
0030
fff8
7ff0
0000
0000
0000
0000
0000
0000
0000
ENDCHAR
STARTCHAR y
ENCODING 121
SWIDTH 1071 0
DWIDTH 15 0
BBX 15 15 0 -6
BITMAP
0006
0006
0006
0006
0006
000e
fffe
fffc
0000
0000
0000
0000
0000
0000
0000
ENDCHAR
STARTCHAR z
ENCODING 122
SWIDTH 1071 0
DWIDTH 15 0
BBX 15 15 0 -6
BITMAP
0000
0000
0000
0000
0038
007c
fffe
fffc
0038
0000
0000
0000
0000
0000
0000
ENDCHAR
STARTCHAR {
ENCODING 123
SWIDTH 1071 0
DWIDTH 15 0
BBX 15 15 0 -6
BITMAP
0380
0386
0006
0006
0006
0006
fffe
fffc
0000
0000
0000
0000
0000
0000
0000
ENDCHAR
STARTCHAR |
ENCODING 124
SWIDTH 1071 0
DWIDTH 15 0
BBX 15 15 0 -6
BITMAP
0000
0000
0000
0000
0000
0000
8180
c180
c180
c180
7300
3c00
0000
0000
0000
ENDCHAR
STARTCHAR }
ENCODING 125
SWIDTH 1071 0
DWIDTH 15 0
BBX 15 15 0 -6
BITMAP
0000
0000
0000
0000
07e0
0e30
fffe
fffc
0730
03e0
0000
0000
0000
0000
0000
ENDCHAR
STARTCHAR ~
ENCODING 126
SWIDTH 1071 0
DWIDTH 15 0
BBX 15 15 0 -6
BITMAP
0000
0000
0000
0000
000c
0006
fffe
fffc
0000
1ce0
1ce0
0000
0000
0000
0000
ENDCHAR
STARTCHAR C177
ENCODING 127
SWIDTH 1071 0
DWIDTH 15 0
BBX 15 15 0 -6
BITMAP
0000
0000
0000
0000
0000
0000
3ff8
7ff8
c000
c000
0000
0000
0000
0000
0000
ENDCHAR
ENDFONT
